<svg width="120" height="120" viewBox="0 0 120 120" fill="none" xmlns="http://www.w3.org/2000/svg">
    <g clip-path="url(#clip0_160_1350)">
        <path d="M42.3846 22.407C51.7696 18.0307 62.9256 22.0911 67.3019 31.4762L70.4716 38.2735L80.6675 33.519C82.5446 32.6437 84.7758 33.4559 85.651 35.3329L104.669 76.1167C105.544 77.9938 104.732 80.2249 102.855 81.1002L48.4765 106.457C46.5994 107.333 44.3683 106.521 43.493 104.643L24.4752 63.8596C23.5999 61.9826 24.412 59.7514 26.289 58.8762L36.485 54.1217L33.3153 47.3244C28.939 37.9393 32.9994 26.7834 42.3846 22.407ZM75.226 48.4694L68.4287 51.6391L70.0135 55.0377C70.8888 56.9148 73.1199 57.7268 74.997 56.8516C76.7398 56.0389 77.5647 54.0571 76.9729 52.275L76.8108 51.8681L75.226 48.4694ZM48.0367 61.148L41.2394 64.3176L42.8242 67.7163C43.6995 69.5934 45.9307 70.4054 47.8077 69.5301C49.5507 68.7174 50.3754 66.7356 49.7835 64.9536L49.6215 64.5467L48.0367 61.148ZM45.5542 29.2043C40.1242 31.7364 37.6649 38.0508 39.8506 43.5476L40.1126 44.1548L43.2823 50.9521L63.6743 41.4431L60.5046 34.6458C57.9726 29.2159 51.6583 26.7566 46.1615 28.9422L45.5542 29.2043Z" fill="#D9D9D9" fill-opacity="0.3"/>
    </g>
    <defs>
        <clipPath id="clip0_160_1350">
            <rect width="90" height="90" fill="white" transform="translate(0 38.0356) rotate(-25)"/>
        </clipPath>
    </defs>
</svg>
