<svg width="120" height="120" viewBox="0 0 120 120" fill="none" xmlns="http://www.w3.org/2000/svg">
    <g clip-path="url(#clip0_160_1348)">
        <path d="M23.7786 53.4974L7.61895 47.6157L10.1841 40.5681L26.3437 46.4497L78.1451 22.2943C80.0222 21.419 82.2533 22.2311 83.1285 24.1081C83.2828 24.4389 83.3879 24.7904 83.4409 25.1514L87.9627 56.1444C88.2016 57.7828 87.3373 59.3845 85.8365 60.0844L44.1828 79.5078L47.3524 86.3051L84.7377 68.872L87.9074 75.6694L47.1234 94.6872C45.2464 95.5625 43.0152 94.7505 42.1399 92.8734L23.7786 53.4974ZM55.162 107.489C52.3464 108.802 48.9996 107.584 47.6868 104.769C46.3739 101.953 47.592 98.6064 50.4075 97.2935C53.2231 95.9806 56.5699 97.1988 57.8827 100.014C59.1956 102.83 57.9775 106.177 55.162 107.489ZM95.946 88.4716C93.1302 89.7846 89.7836 88.5663 88.4708 85.7508C87.1579 82.9354 88.3757 79.5886 91.1915 78.2756C94.007 76.9627 97.3539 78.1809 98.6667 80.9964C99.9796 83.8118 98.7614 87.1587 95.946 88.4716Z" fill="#D9D9D9" fill-opacity="0.5"/>
    </g>
    <defs>
        <clipPath id="clip0_160_1348">
            <rect width="90" height="90" fill="white" transform="translate(0 38.0356) rotate(-25)"/>
        </clipPath>
    </defs>
</svg>
