<svg width="120" height="120" viewBox="0 0 120 120" fill="none" xmlns="http://www.w3.org/2000/svg">
    <g clip-path="url(#clip0_160_1260)">
        <path d="M70.4557 38.283L80.6516 33.5285L97.2751 42.558L106.696 62.7606L99.7782 65.9863C101.641 72.1354 98.7501 78.8787 92.7576 81.673C86.7651 84.4674 79.7411 82.3477 76.2282 76.9678L58.9942 85.0042C60.8576 91.1532 57.9664 97.8965 51.9738 100.691C45.9811 103.485 38.9571 101.366 35.4445 95.9856L31.9254 97.6266L12.9076 56.8427C12.0323 54.9657 12.8444 52.7345 14.7214 51.8593L62.3026 29.6718C64.1796 28.7965 66.4108 29.6086 67.286 31.4856L70.4557 38.283ZM73.6253 45.0803L78.3798 55.2762L91.9744 48.937L91.5227 47.9683L80.3944 41.9238L73.6253 45.0803Z" fill="#D9D9D9" fill-opacity="0.5"/>
    </g>
    <defs>
        <clipPath id="clip0_160_1260">
            <rect width="90" height="90" fill="white" transform="translate(0 38.0356) rotate(-25)"/>
        </clipPath>
    </defs>
</svg>
